<?xml version="1.0" encoding="UTF-8" standalone="no"?>
<svg width="25px" height="34px" viewBox="0 0 25 34" version="1.1" xmlns="http://www.w3.org/2000/svg" xmlns:xlink="http://www.w3.org/1999/xlink" xmlns:sketch="http://www.bohemiancoding.com/sketch/ns">
    <!-- Generator: Sketch 3.3.3 (12072) - http://www.bohemiancoding.com/sketch -->
    <title>Rectangle 32</title>
    <desc>Created with Sketch.</desc>
    <defs></defs>
    <g id="Page-1" stroke="none" stroke-width="1" fill="none" fill-rule="evenodd" sketch:type="MSPage">
        <g id="Player-Min" sketch:type="MSArtboardGroup" transform="translate(-689.000000, -32.000000)" stroke="#4C4C4C" fill="#FFFFFF">
            <g id="Group" sketch:type="MSLayerGroup">
                <g id="Rectangle-162-Copy-5-+-Rectangle-32-Copy" transform="translate(652.000000, 0.000000)" sketch:type="MSShapeGroup">
                    <path d="M38,35.8679482 C38,34.2840242 39.2904122,33 40.875,33 C42.4628187,33 43.75,34.2940712 43.75,35.8679482 L43.75,62.1320518 C43.75,63.7159758 42.4595878,65 40.875,65 C39.2871813,65 38,63.7059288 38,62.1320518 L38,35.8679482 Z M55.25,35.8679482 C55.25,34.2840242 56.5404122,33 58.125,33 C59.7128187,33 61,34.2940712 61,35.8679482 L61,62.1320518 C61,63.7159758 59.7095878,65 58.125,65 C56.5371813,65 55.25,63.7059288 55.25,62.1320518 L55.25,35.8679482 Z" id="Rectangle-32"></path>
                </g>
            </g>
        </g>
    </g>
</svg>