<?xml version="1.0" encoding="UTF-8" standalone="no"?>
<svg width="37px" height="32px" viewBox="0 0 37 32" version="1.1" xmlns="http://www.w3.org/2000/svg" xmlns:xlink="http://www.w3.org/1999/xlink" xmlns:sketch="http://www.bohemiancoding.com/sketch/ns">
    <!-- Generator: Sketch 3.3.3 (12072) - http://www.bohemiancoding.com/sketch -->
    <title>Next Copy 11@2x</title>
    <desc>Created with Sketch.</desc>
    <defs></defs>
    <g id="Page-1" stroke="none" stroke-width="1" fill="none" fill-rule="evenodd" sketch:type="MSPage">
        <g id="Player-Max" sketch:type="MSArtboardGroup" transform="translate(-127.000000, -131.000000)" fill="#FFFFFF">
            <g id="Group-Copy-8" sketch:type="MSLayerGroup" transform="translate(128.000000, 98.000000)">
                <g id="Group" sketch:type="MSShapeGroup">
                    <g id="Next-Copy-11" transform="translate(18.000000, 49.000000) scale(-1, 1) translate(-18.000000, -49.000000) translate(0.000000, 33.000000)">
                        <path d="M16.9411765,30.0524072 C16.9411765,31.5870969 17.8811728,32.0194786 19.0469819,31.0127488 L35.6572007,16.6690603 C36.2363716,16.1689196 36.2368083,15.358459 35.6572007,14.8580037 L19.0469819,0.516108045 C17.8839777,-0.488074111 16.9411765,-0.0468201268 16.9411765,1.47667695 L16.9411765,30.0524072 Z" id="Shape-4"></path>
                        <path d="M0,30.0524072 C0,31.5870969 0.939996321,32.0194786 2.10580544,31.0127488 L18.7160242,16.6690603 C19.2951951,16.1689196 19.2956318,15.358459 18.7160242,14.8580037 L2.10580544,0.516108045 C0.942801208,-0.488074111 0,-0.0468201268 0,1.47667695 L0,30.0524072 Z" id="Shape-4-Copy"></path>
                    </g>
                </g>
            </g>
        </g>
    </g>
</svg>